<svg width="140" height="47" viewBox="0 0 140 47" fill="none" xmlns="http://www.w3.org/2000/svg">
<path d="M0 0H140V47H0V0Z" fill="black"/>
<path d="M48.4908 25.815L48.4833 27H41.8608V16.2525H48.4833V17.4375H43.3158V21.0075H47.5008V22.1475H43.3158V25.815H48.4908ZM60.2255 16.2525V27H59.498C59.383 27 59.2855 26.98 59.2055 26.94C59.1305 26.9 59.0555 26.8325 58.9805 26.7375L52.763 18.6375C52.773 18.7625 52.7805 18.885 52.7855 19.005C52.7905 19.125 52.793 19.2375 52.793 19.3425V27H51.518V16.2525H52.268C52.333 16.2525 52.388 16.2575 52.433 16.2675C52.478 16.2725 52.518 16.285 52.553 16.305C52.588 16.32 52.623 16.345 52.658 16.38C52.693 16.41 52.7305 16.45 52.7705 16.5L58.988 24.5925C58.978 24.4625 58.968 24.3375 58.958 24.2175C58.953 24.0925 58.9505 23.975 58.9505 23.865V16.2525H60.2255ZM72.7106 16.2525L68.3306 27H67.0256L62.6456 16.2525H63.8081C63.9381 16.2525 64.0431 16.285 64.1231 16.35C64.2031 16.415 64.2631 16.4975 64.3031 16.5975L67.3331 24.18C67.3981 24.35 67.4606 24.535 67.5206 24.735C67.5856 24.935 67.6431 25.145 67.6931 25.365C67.7431 25.145 67.7956 24.935 67.8506 24.735C67.9056 24.535 67.9656 24.35 68.0306 24.18L71.0531 16.5975C71.0831 16.5125 71.1406 16.435 71.2256 16.365C71.3156 16.29 71.4231 16.2525 71.5481 16.2525H72.7106ZM76.5795 27H75.1245V16.2525H76.5795V27ZM86.0361 23.01L84.3486 18.6375C84.2986 18.5075 84.2461 18.3575 84.1911 18.1875C84.1361 18.0125 84.0836 17.8275 84.0336 17.6325C83.9286 18.0375 83.8211 18.375 83.7111 18.645L82.0236 23.01H86.0361ZM89.0661 27H87.9411C87.8111 27 87.7061 26.9675 87.6261 26.9025C87.5461 26.8375 87.4861 26.755 87.4461 26.655L86.4411 24.06H81.6186L80.6136 26.655C80.5836 26.745 80.5261 26.825 80.4411 26.895C80.3561 26.965 80.2511 27 80.1261 27H79.0011L83.2986 16.2525H84.7686L89.0661 27ZM94.4574 21.4575C94.8774 21.4575 95.2474 21.4075 95.5674 21.3075C95.8924 21.2025 96.1624 21.0575 96.3774 20.8725C96.5974 20.6825 96.7624 20.4575 96.8724 20.1975C96.9824 19.9375 97.0374 19.65 97.0374 19.335C97.0374 18.695 96.8274 18.2125 96.4074 17.8875C95.9874 17.5625 95.3574 17.4 94.5174 17.4H92.9274V21.4575H94.4574ZM99.4224 27H98.1324C97.8674 27 97.6724 26.8975 97.5474 26.6925L94.7574 22.8525C94.6724 22.7325 94.5799 22.6475 94.4799 22.5975C94.3849 22.5425 94.2349 22.515 94.0299 22.515H92.9274V27H91.4799V16.2525H94.5174C95.1974 16.2525 95.7849 16.3225 96.2799 16.4625C96.7749 16.5975 97.1824 16.795 97.5024 17.055C97.8274 17.315 98.0674 17.63 98.2224 18C98.3774 18.365 98.4549 18.775 98.4549 19.23C98.4549 19.61 98.3949 19.965 98.2749 20.295C98.1549 20.625 97.9799 20.9225 97.7499 21.1875C97.5249 21.4475 97.2474 21.67 96.9174 21.855C96.5924 22.04 96.2224 22.18 95.8074 22.275C95.9924 22.38 96.1524 22.5325 96.2874 22.7325L99.4224 27Z" fill="white"/>
</svg>
